<svg width="24" height="25" viewBox="0 0 24 25" fill="none" xmlns="http://www.w3.org/2000/svg">
<path d="M15.04 22.3896L15.052 22.3966C16.1141 23.0728 17.3751 23.3666 18.6267 23.2293C19.8783 23.092 21.0456 22.532 21.936 21.6416L22.71 20.8676C23.0557 20.5215 23.2498 20.0523 23.2498 19.5631C23.2498 19.0739 23.0557 18.6048 22.71 18.2586L19.449 14.9996C19.1028 14.6539 18.6336 14.4598 18.1445 14.4598C17.6553 14.4598 17.1861 14.6539 16.84 14.9996V14.9996C16.6688 15.171 16.4655 15.307 16.2418 15.3997C16.018 15.4925 15.7782 15.5402 15.536 15.5402C15.2937 15.5402 15.0539 15.4925 14.8302 15.3997C14.6064 15.307 14.4031 15.171 14.232 14.9996L9.01396 9.78063C8.66827 9.4345 8.4741 8.96532 8.4741 8.47613C8.4741 7.98694 8.66827 7.51775 9.01396 7.17163V7.17163C9.18534 7.00046 9.3213 6.79719 9.41406 6.57344C9.50682 6.34969 9.55456 6.10985 9.55456 5.86763C9.55456 5.62541 9.50682 5.38557 9.41406 5.16182C9.3213 4.93807 9.18534 4.7348 9.01396 4.56363L5.75396 1.29963C5.40783 0.953936 4.93865 0.759766 4.44946 0.759766C3.96027 0.759766 3.49109 0.953936 3.14496 1.29963L2.37096 2.07363C1.48079 2.96401 0.920772 4.13127 0.783331 5.38279C0.64589 6.6343 0.939236 7.89528 1.61496 8.95763L1.62296 8.96963C5.19637 14.2595 9.75093 18.815 15.04 22.3896V22.3896Z" stroke="#EC1115" stroke-width="1.5" stroke-linecap="round" stroke-linejoin="round"/>
</svg>
